<svg width="1539" height="1539" viewBox="0 0 1539 1539" fill="none" xmlns="http://www.w3.org/2000/svg">
    <rect width="1539" height="1539" fill="transparent"/>
    <mask id="path-2-outside-1_183_22" maskUnits="userSpaceOnUse" x="209.899" y="215.859" width="1120" height="1109" fill="black">
        <rect fill="white" x="209.899" y="215.859" width="1120" height="1109"/>
        <path d="M1080.32 257.603C1081.54 258.649 1082.77 259.694 1084.03 260.771C1114.6 285.586 1159.71 291.331 1197.49 295.142C1199.18 295.319 1200.88 295.497 1202.62 295.68C1204.14 295.831 1205.66 295.981 1207.22 296.137C1211.62 296.872 1215.27 298.185 1219.33 299.988C1219.33 301.023 1219.33 302.058 1219.33 303.125C1198.02 321.842 1172.58 325.702 1145.21 325.282C1143.42 325.268 1141.64 325.254 1139.8 325.239C1135.46 325.203 1131.12 325.151 1126.78 325.086C1127.62 325.921 1128.46 326.757 1129.33 327.617C1131.01 329.282 1131.01 329.282 1132.72 330.981C1133.82 332.075 1134.92 333.169 1136.06 334.296C1140.02 338.342 1143.73 342.563 1147.42 346.857C1150.61 350.537 1153.89 354.133 1157.17 357.734C1163.84 365.142 1170.24 372.722 1176.46 380.514C1177.93 382.36 1179.41 384.202 1180.9 386.039C1271.31 497.976 1320.08 642.891 1313.39 831.375C1299.18 960.113 1252.61 1108.02 1159.72 1239.61C1158.55 1240.95 1157.37 1242.3 1156.17 1243.68C1152.69 1247.6 1149.17 1251.46 1145.6 1255.3C1144.63 1256.36 1143.65 1257.42 1142.64 1258.51C1119.12 1283.12 1083.82 1306.54 1048.76 1307.44C1003.25 1308.35 969.024 1291.52 935.402 1261.57C933.858 1260.2 933.858 1260.2 932.283 1258.8C905.281 1233.28 886.264 1197.75 871.872 1163.92C871.321 1162.63 870.771 1161.34 870.204 1160.01C869.703 1158.8 869.202 1157.6 868.685 1156.35C868.016 1154.74 868.016 1154.74 867.334 1153.09C866.381 1150.2 866.381 1150.2 866.381 1145.49C865.346 1145.49 864.311 1145.49 863.244 1145.49C862.832 1146.41 862.42 1147.32 861.996 1148.26C860.007 1151.95 857.835 1154.56 854.972 1157.61C853.946 1158.7 852.921 1159.8 851.864 1160.92C850.217 1162.65 850.217 1162.65 848.538 1164.41C847.407 1165.61 846.276 1166.8 845.111 1168.02C810.049 1204.66 769.666 1233.53 720.496 1247.45C718.648 1247.99 716.8 1248.53 714.896 1249.08C673.086 1258.96 624.891 1253.04 585.611 1236.84C584.052 1236.2 582.492 1235.56 580.886 1234.91C579.912 1234.46 578.937 1234.01 577.933 1233.55C574.277 1232.94 574.277 1232.94 570.961 1236.2C569.632 1237.61 568.303 1239.02 566.934 1240.47C565.432 1242.03 563.93 1243.59 562.427 1245.15C561.648 1245.98 560.868 1246.8 560.065 1247.65C530.623 1278.7 494.769 1306.17 450.29 1308.95C418.833 1309.4 392.526 1299.09 369.608 1277.76C352.625 1261.13 340.466 1241.96 329.902 1220.79C329.403 1219.79 328.905 1218.8 328.391 1217.77C288.211 1135.84 281.756 1039.52 282.329 949.663C282.352 945.791 282.367 941.919 282.38 938.047C282.72 839.968 288.05 742.085 303.234 645.091C303.407 643.979 303.58 642.867 303.758 641.721C305.955 627.633 308.396 613.604 311.078 599.6C311.425 597.767 311.772 595.934 312.129 594.045C315.978 574.034 320.456 554.383 326.764 534.991C327.247 533.483 327.73 531.975 328.228 530.421C332.765 517.156 339.748 503.024 352.157 495.579C361.155 493.38 369.26 494.762 377.255 499.403C383.145 503.518 389.607 508.253 392.648 514.893C392.396 525.165 388.043 534.119 384.216 543.521C350.554 628.705 333.847 717.659 326.372 808.624C326.242 810.196 326.111 811.769 325.977 813.389C322.737 853.031 321.731 892.584 321.764 932.351C321.765 933.399 321.765 934.447 321.765 935.527C321.781 966.917 321.951 998.156 325.196 1029.41C325.298 1030.42 325.401 1031.44 325.507 1032.48C332.789 1104.06 342.462 1195 398.095 1247.41C414.839 1260.86 433.643 1269.19 455.501 1267.43C493.663 1263.1 520.287 1235.09 543.239 1206.67C540.589 1200.43 536.324 1195.58 532.062 1190.39C523.477 1179.69 516.615 1168.63 510.297 1156.47C509.462 1154.9 508.627 1153.33 507.766 1151.72C497.391 1130.91 492.023 1107.97 487.943 1085.2C487.707 1083.89 487.47 1082.59 487.226 1081.25C481.511 1046.89 481.386 1012.2 481.027 977.479C480.968 972.27 480.891 967.061 480.815 961.852C480.149 915.686 480.435 869.477 484.12 823.428C484.22 822.123 484.321 820.818 484.424 819.473C494.34 690.762 508.586 545.213 572.335 430.298C575.334 424.964 575.334 424.964 576.027 419.015C551.551 368.05 506.411 324.768 456.963 298.419C455.401 297.566 453.84 296.712 452.232 295.833C440.14 289.464 427.673 285.019 414.609 281.164C413.311 280.773 412.013 280.383 410.675 279.981C389.525 274.712 365.66 276.004 346.458 286.372C303.565 312.981 290.062 373.387 279.312 419.107C270.107 458.753 263.422 498.967 256.291 539.026C253.347 555.559 250.355 572.082 247.253 588.586C246.802 590.995 246.353 593.404 245.909 595.813C245.315 599.032 244.711 602.248 244.104 605.464C243.78 607.196 243.456 608.928 243.122 610.712C242.102 615.095 240.714 619.01 238.92 623.13C207.79 576.436 236.68 446.478 247.38 392.568C255.934 350.415 266.733 304.184 296.96 271.752C298.57 269.956 298.57 269.956 300.214 268.124C314.883 252.533 331.407 243.242 351.863 237.241C353.145 236.855 354.427 236.469 355.748 236.071C398.005 225.543 445.429 242.166 482.061 262.34C483.715 263.226 485.369 264.111 487.073 265.024C505.604 275.329 521.447 288.785 536.964 303.125C538.422 304.421 539.88 305.717 541.382 307.053C549.983 314.718 557.857 322.495 565.2 331.361C566.352 332.689 567.505 334.018 568.692 335.386C579.982 348.557 589.884 362.572 599.71 376.852C601 375.24 602.29 373.628 603.619 371.968C632.128 336.509 632.128 336.509 648.338 323.517C649.685 322.425 651.032 321.333 652.419 320.208C695.137 286.817 745.849 271.67 799.811 277.634C828.15 281.145 853.814 291.504 878.93 304.693C879.309 303.818 879.687 302.942 880.076 302.04C885.714 291.788 895.596 282.91 904.029 274.889C905.099 273.846 906.168 272.802 907.27 271.727C928.44 251.747 955.442 238.076 984.03 232.535C985.777 232.18 987.524 231.824 989.324 231.457C1022.71 228.578 1054.2 235.898 1080.32 257.603ZM675.005 369.008C673.869 369.983 672.733 370.958 671.562 371.962C660.203 382.56 651.182 395.716 642.064 408.225C641.067 409.586 641.067 409.586 640.05 410.974C633.385 419.479 633.385 419.479 631.144 429.616C633.341 437.305 636.74 444.317 640.103 451.559C656.165 487.104 669.366 524.351 679.711 561.953C684.225 558.002 686.542 553.642 689.252 548.325C690.185 546.505 691.119 544.686 692.081 542.811C692.573 541.841 693.065 540.872 693.572 539.873C695.127 536.809 696.693 533.752 698.262 530.695C700.973 525.41 703.676 520.121 706.377 514.831C719.766 488.611 733.445 462.641 748.128 437.118C750.046 433.768 751.937 430.405 753.812 427.03C761.385 413.478 769.729 400.601 778.537 387.832C779.18 386.893 779.823 385.955 780.486 384.987C790.952 369.772 802.442 355.716 814.659 341.875C819.3 337.297 819.3 337.297 820.89 331.361C766.955 318.863 716.7 333.026 675.005 369.008ZM824.791 383.93C783.969 425.511 755.024 478.97 726.992 529.581C722.746 537.236 718.385 544.812 713.928 552.345C713.321 553.38 712.713 554.416 712.088 555.483C708.652 561.327 705.126 567.103 701.525 572.848C699.908 575.49 698.29 578.133 696.672 580.777C695.897 581.977 695.121 583.178 694.321 584.416C688.906 593.368 688.517 598.925 690.692 609.012C691.264 612.237 691.831 615.462 692.395 618.688C692.72 620.453 693.046 622.218 693.38 624.036C720.493 772.076 690.211 922.982 643.632 1106.28C642.979 1108.41 642.979 1108.41 642.313 1110.58C632.836 1141.19 620.687 1171.24 602.431 1197.77C599.425 1201.57 599.425 1201.57 599.71 1205.1C605.002 1206.65 610.297 1208.18 615.593 1209.71C617.085 1210.14 618.577 1210.58 620.115 1211.03C661.298 1222.9 701.863 1211.83 738.753 1192.13C751.339 1185.1 762.66 1176.52 773.831 1167.45C774.795 1166.67 775.76 1165.89 776.754 1165.08C793.031 1151.73 809.373 1137.32 822.514 1120.8C825.177 1117.74 827.834 1115.28 830.884 1112.64C836.831 1107.07 842.068 1101.69 844.42 1093.73C843.757 1081.82 838.201 1070.58 833.81 1059.65C786.242 933.59 808.469 780.174 824.937 633.533C825.626 627.575 825.871 621.742 825.982 615.747C826.032 613.433 826.081 611.12 826.132 608.806C826.168 607.01 826.168 607.01 826.205 605.178C826.738 579.712 827.907 554.378 830.302 529.011C830.451 527.427 830.6 525.843 830.754 524.211C836.323 467.274 845.115 409.276 863.244 354.89C849.428 354.89 834.099 374.625 824.791 383.93ZM1133.05 398.813C1133.78 407.808 1134.52 416.799 1135.44 425.777C1138.12 452.701 1138.32 479.548 1138.26 506.574C1138.25 510.333 1138.24 514.093 1138.24 517.852C1138.19 555.209 1137.37 592.262 1133.05 629.405C1132.81 631.526 1132.58 633.647 1132.34 635.768C1118.69 756.162 1075.22 859 1005.85 957.68C1001.26 964.233 996.765 970.84 992.266 977.45C973.443 1005.03 954.001 1032.15 933.75 1058.7C932.054 1060.92 930.367 1063.15 928.69 1065.39C924.675 1070.71 920.594 1075.73 915.953 1080.51C906.773 1090.16 906.773 1090.16 903.919 1102.89C904.924 1108.71 906.794 1114.15 908.87 1119.67C910.428 1123.87 911.79 1128.1 913.141 1132.37C919.053 1150.68 926.154 1167.85 935.402 1184.71C936.43 1186.64 937.457 1188.58 938.484 1190.52C945.112 1202.79 952.702 1213.59 962.069 1223.92C962.764 1224.7 963.46 1225.47 964.176 1226.27C982.269 1246.11 1006.39 1264.36 1034.03 1266.65C1066 1267.41 1090.61 1250.75 1113.03 1229.72C1134 1209.58 1151.45 1186.51 1165.75 1161.23C1166.99 1159.04 1168.25 1156.86 1169.51 1154.69C1234.04 1043.87 1274.54 902.329 1274.62 774.309C1274.62 772.911 1274.63 771.513 1274.63 770.072C1274.6 744.36 1273.17 719.204 1269.53 693.72C1269.28 692.006 1269.04 690.292 1268.79 688.527C1259.04 623.462 1236.83 560.648 1206.78 502.344C1206.19 501.19 1205.6 500.036 1204.99 498.847C1190.92 471.788 1172.56 446.043 1153.44 422.343C1151.75 420.195 1150.06 418.046 1148.37 415.896C1146.63 413.698 1144.89 411.5 1143.15 409.303C1142.33 408.259 1141.5 407.214 1140.65 406.138C1138.68 403.666 1136.65 401.235 1134.62 398.813C1134.1 398.813 1133.59 398.813 1133.05 398.813Z"/>
    </mask>
    <path d="M1080.32 257.603C1081.54 258.649 1082.77 259.694 1084.03 260.771C1114.6 285.586 1159.71 291.331 1197.49 295.142C1199.18 295.319 1200.88 295.497 1202.62 295.68C1204.14 295.831 1205.66 295.981 1207.22 296.137C1211.62 296.872 1215.27 298.185 1219.33 299.988C1219.33 301.023 1219.33 302.058 1219.33 303.125C1198.02 321.842 1172.58 325.702 1145.21 325.282C1143.42 325.268 1141.64 325.254 1139.8 325.239C1135.46 325.203 1131.12 325.151 1126.78 325.086C1127.62 325.921 1128.46 326.757 1129.33 327.617C1131.01 329.282 1131.01 329.282 1132.72 330.981C1133.82 332.075 1134.92 333.169 1136.06 334.296C1140.02 338.342 1143.73 342.563 1147.42 346.857C1150.61 350.537 1153.89 354.133 1157.17 357.734C1163.84 365.142 1170.24 372.722 1176.46 380.514C1177.93 382.36 1179.41 384.202 1180.9 386.039C1271.31 497.976 1320.08 642.891 1313.39 831.375C1299.18 960.113 1252.61 1108.02 1159.72 1239.61C1158.55 1240.95 1157.37 1242.3 1156.17 1243.68C1152.69 1247.6 1149.17 1251.46 1145.6 1255.3C1144.63 1256.36 1143.65 1257.42 1142.64 1258.51C1119.12 1283.12 1083.82 1306.54 1048.76 1307.44C1003.25 1308.35 969.024 1291.52 935.402 1261.57C933.858 1260.2 933.858 1260.2 932.283 1258.8C905.281 1233.28 886.264 1197.75 871.872 1163.92C871.321 1162.63 870.771 1161.34 870.204 1160.01C869.703 1158.8 869.202 1157.6 868.685 1156.35C868.016 1154.74 868.016 1154.74 867.334 1153.09C866.381 1150.2 866.381 1150.2 866.381 1145.49C865.346 1145.49 864.311 1145.49 863.244 1145.49C862.832 1146.41 862.42 1147.32 861.996 1148.26C860.007 1151.95 857.835 1154.56 854.972 1157.61C853.946 1158.7 852.921 1159.8 851.864 1160.92C850.217 1162.65 850.217 1162.65 848.538 1164.41C847.407 1165.61 846.276 1166.8 845.111 1168.02C810.049 1204.66 769.666 1233.53 720.496 1247.45C718.648 1247.99 716.8 1248.53 714.896 1249.08C673.086 1258.96 624.891 1253.04 585.611 1236.84C584.052 1236.2 582.492 1235.56 580.886 1234.91C579.912 1234.46 578.937 1234.01 577.933 1233.55C574.277 1232.94 574.277 1232.94 570.961 1236.2C569.632 1237.61 568.303 1239.02 566.934 1240.47C565.432 1242.03 563.93 1243.59 562.427 1245.15C561.648 1245.98 560.868 1246.8 560.065 1247.65C530.623 1278.7 494.769 1306.17 450.29 1308.95C418.833 1309.4 392.526 1299.09 369.608 1277.76C352.625 1261.13 340.466 1241.96 329.902 1220.79C329.403 1219.79 328.905 1218.8 328.391 1217.77C288.211 1135.84 281.756 1039.52 282.329 949.663C282.352 945.791 282.367 941.919 282.38 938.047C282.72 839.968 288.05 742.085 303.234 645.091C303.407 643.979 303.58 642.867 303.758 641.721C305.955 627.633 308.396 613.604 311.078 599.6C311.425 597.767 311.772 595.934 312.129 594.045C315.978 574.034 320.456 554.383 326.764 534.991C327.247 533.483 327.73 531.975 328.228 530.421C332.765 517.156 339.748 503.024 352.157 495.579C361.155 493.38 369.26 494.762 377.255 499.403C383.145 503.518 389.607 508.253 392.648 514.893C392.396 525.165 388.043 534.119 384.216 543.521C350.554 628.705 333.847 717.659 326.372 808.624C326.242 810.196 326.111 811.769 325.977 813.389C322.737 853.031 321.731 892.584 321.764 932.351C321.765 933.399 321.765 934.447 321.765 935.527C321.781 966.917 321.951 998.156 325.196 1029.41C325.298 1030.42 325.401 1031.44 325.507 1032.48C332.789 1104.06 342.462 1195 398.095 1247.41C414.839 1260.86 433.643 1269.19 455.501 1267.43C493.663 1263.1 520.287 1235.09 543.239 1206.67C540.589 1200.43 536.324 1195.58 532.062 1190.39C523.477 1179.69 516.615 1168.63 510.297 1156.47C509.462 1154.9 508.627 1153.33 507.766 1151.72C497.391 1130.91 492.023 1107.97 487.943 1085.2C487.707 1083.89 487.47 1082.59 487.226 1081.25C481.511 1046.89 481.386 1012.2 481.027 977.479C480.968 972.27 480.891 967.061 480.815 961.852C480.149 915.686 480.435 869.477 484.12 823.428C484.22 822.123 484.321 820.818 484.424 819.473C494.34 690.762 508.586 545.213 572.335 430.298C575.334 424.964 575.334 424.964 576.027 419.015C551.551 368.05 506.411 324.768 456.963 298.419C455.401 297.566 453.84 296.712 452.232 295.833C440.14 289.464 427.673 285.019 414.609 281.164C413.311 280.773 412.013 280.383 410.675 279.981C389.525 274.712 365.66 276.004 346.458 286.372C303.565 312.981 290.062 373.387 279.312 419.107C270.107 458.753 263.422 498.967 256.291 539.026C253.347 555.559 250.355 572.082 247.253 588.586C246.802 590.995 246.353 593.404 245.909 595.813C245.315 599.032 244.711 602.248 244.104 605.464C243.78 607.196 243.456 608.928 243.122 610.712C242.102 615.095 240.714 619.01 238.92 623.13C207.79 576.436 236.68 446.478 247.38 392.568C255.934 350.415 266.733 304.184 296.96 271.752C298.57 269.956 298.57 269.956 300.214 268.124C314.883 252.533 331.407 243.242 351.863 237.241C353.145 236.855 354.427 236.469 355.748 236.071C398.005 225.543 445.429 242.166 482.061 262.34C483.715 263.226 485.369 264.111 487.073 265.024C505.604 275.329 521.447 288.785 536.964 303.125C538.422 304.421 539.88 305.717 541.382 307.053C549.983 314.718 557.857 322.495 565.2 331.361C566.352 332.689 567.505 334.018 568.692 335.386C579.982 348.557 589.884 362.572 599.71 376.852C601 375.24 602.29 373.628 603.619 371.968C632.128 336.509 632.128 336.509 648.338 323.517C649.685 322.425 651.032 321.333 652.419 320.208C695.137 286.817 745.849 271.67 799.811 277.634C828.15 281.145 853.814 291.504 878.93 304.693C879.309 303.818 879.687 302.942 880.076 302.04C885.714 291.788 895.596 282.91 904.029 274.889C905.099 273.846 906.168 272.802 907.27 271.727C928.44 251.747 955.442 238.076 984.03 232.535C985.777 232.18 987.524 231.824 989.324 231.457C1022.71 228.578 1054.2 235.898 1080.32 257.603ZM675.005 369.008C673.869 369.983 672.733 370.958 671.562 371.962C660.203 382.56 651.182 395.716 642.064 408.225C641.067 409.586 641.067 409.586 640.05 410.974C633.385 419.479 633.385 419.479 631.144 429.616C633.341 437.305 636.74 444.317 640.103 451.559C656.165 487.104 669.366 524.351 679.711 561.953C684.225 558.002 686.542 553.642 689.252 548.325C690.185 546.505 691.119 544.686 692.081 542.811C692.573 541.841 693.065 540.872 693.572 539.873C695.127 536.809 696.693 533.752 698.262 530.695C700.973 525.41 703.676 520.121 706.377 514.831C719.766 488.611 733.445 462.641 748.128 437.118C750.046 433.768 751.937 430.405 753.812 427.03C761.385 413.478 769.729 400.601 778.537 387.832C779.18 386.893 779.823 385.955 780.486 384.987C790.952 369.772 802.442 355.716 814.659 341.875C819.3 337.297 819.3 337.297 820.89 331.361C766.955 318.863 716.7 333.026 675.005 369.008ZM824.791 383.93C783.969 425.511 755.024 478.97 726.992 529.581C722.746 537.236 718.385 544.812 713.928 552.345C713.321 553.38 712.713 554.416 712.088 555.483C708.652 561.327 705.126 567.103 701.525 572.848C699.908 575.49 698.29 578.133 696.672 580.777C695.897 581.977 695.121 583.178 694.321 584.416C688.906 593.368 688.517 598.925 690.692 609.012C691.264 612.237 691.831 615.462 692.395 618.688C692.72 620.453 693.046 622.218 693.38 624.036C720.493 772.076 690.211 922.982 643.632 1106.28C642.979 1108.41 642.979 1108.41 642.313 1110.58C632.836 1141.19 620.687 1171.24 602.431 1197.77C599.425 1201.57 599.425 1201.57 599.71 1205.1C605.002 1206.65 610.297 1208.18 615.593 1209.71C617.085 1210.14 618.577 1210.58 620.115 1211.03C661.298 1222.9 701.863 1211.83 738.753 1192.13C751.339 1185.1 762.66 1176.52 773.831 1167.45C774.795 1166.67 775.76 1165.89 776.754 1165.08C793.031 1151.73 809.373 1137.32 822.514 1120.8C825.177 1117.74 827.834 1115.28 830.884 1112.64C836.831 1107.07 842.068 1101.69 844.42 1093.73C843.757 1081.82 838.201 1070.58 833.81 1059.65C786.242 933.59 808.469 780.174 824.937 633.533C825.626 627.575 825.871 621.742 825.982 615.747C826.032 613.433 826.081 611.12 826.132 608.806C826.168 607.01 826.168 607.01 826.205 605.178C826.738 579.712 827.907 554.378 830.302 529.011C830.451 527.427 830.6 525.843 830.754 524.211C836.323 467.274 845.115 409.276 863.244 354.89C849.428 354.89 834.099 374.625 824.791 383.93ZM1133.05 398.813C1133.78 407.808 1134.52 416.799 1135.44 425.777C1138.12 452.701 1138.32 479.548 1138.26 506.574C1138.25 510.333 1138.24 514.093 1138.24 517.852C1138.19 555.209 1137.37 592.262 1133.05 629.405C1132.81 631.526 1132.58 633.647 1132.34 635.768C1118.69 756.162 1075.22 859 1005.85 957.68C1001.26 964.233 996.765 970.84 992.266 977.45C973.443 1005.03 954.001 1032.15 933.75 1058.7C932.054 1060.92 930.367 1063.15 928.69 1065.39C924.675 1070.71 920.594 1075.73 915.953 1080.51C906.773 1090.16 906.773 1090.16 903.919 1102.89C904.924 1108.71 906.794 1114.15 908.87 1119.67C910.428 1123.87 911.79 1128.1 913.141 1132.37C919.053 1150.68 926.154 1167.85 935.402 1184.71C936.43 1186.64 937.457 1188.58 938.484 1190.52C945.112 1202.79 952.702 1213.59 962.069 1223.92C962.764 1224.7 963.46 1225.47 964.176 1226.27C982.269 1246.11 1006.39 1264.36 1034.03 1266.65C1066 1267.41 1090.61 1250.75 1113.03 1229.72C1134 1209.58 1151.45 1186.51 1165.75 1161.23C1166.99 1159.04 1168.25 1156.86 1169.51 1154.69C1234.04 1043.87 1274.54 902.329 1274.62 774.309C1274.62 772.911 1274.63 771.513 1274.63 770.072C1274.6 744.36 1273.17 719.204 1269.53 693.72C1269.28 692.006 1269.04 690.292 1268.79 688.527C1259.04 623.462 1236.83 560.648 1206.78 502.344C1206.19 501.19 1205.6 500.036 1204.99 498.847C1190.92 471.788 1172.56 446.043 1153.44 422.343C1151.75 420.195 1150.06 418.046 1148.37 415.896C1146.63 413.698 1144.89 411.5 1143.15 409.303C1142.33 408.259 1141.5 407.214 1140.65 406.138C1138.68 403.666 1136.65 401.235 1134.62 398.813C1134.1 398.813 1133.59 398.813 1133.05 398.813Z" fill="black"/>
    <path d="M1080.32 257.603C1081.54 258.649 1082.77 259.694 1084.03 260.771C1114.6 285.586 1159.71 291.331 1197.49 295.142C1199.18 295.319 1200.88 295.497 1202.62 295.68C1204.14 295.831 1205.66 295.981 1207.22 296.137C1211.62 296.872 1215.27 298.185 1219.33 299.988C1219.33 301.023 1219.33 302.058 1219.33 303.125C1198.02 321.842 1172.58 325.702 1145.21 325.282C1143.42 325.268 1141.64 325.254 1139.8 325.239C1135.46 325.203 1131.12 325.151 1126.78 325.086C1127.62 325.921 1128.46 326.757 1129.33 327.617C1131.01 329.282 1131.01 329.282 1132.72 330.981C1133.82 332.075 1134.92 333.169 1136.06 334.296C1140.02 338.342 1143.73 342.563 1147.42 346.857C1150.61 350.537 1153.89 354.133 1157.17 357.734C1163.84 365.142 1170.24 372.722 1176.46 380.514C1177.93 382.36 1179.41 384.202 1180.9 386.039C1271.31 497.976 1320.08 642.891 1313.39 831.375C1299.18 960.113 1252.61 1108.02 1159.72 1239.61C1158.55 1240.95 1157.37 1242.3 1156.17 1243.68C1152.69 1247.6 1149.17 1251.46 1145.6 1255.3C1144.63 1256.36 1143.65 1257.42 1142.64 1258.51C1119.12 1283.12 1083.82 1306.54 1048.76 1307.44C1003.25 1308.35 969.024 1291.52 935.402 1261.57C933.858 1260.2 933.858 1260.2 932.283 1258.8C905.281 1233.28 886.264 1197.75 871.872 1163.92C871.321 1162.63 870.771 1161.34 870.204 1160.01C869.703 1158.8 869.202 1157.6 868.685 1156.35C868.016 1154.74 868.016 1154.74 867.334 1153.09C866.381 1150.2 866.381 1150.2 866.381 1145.49C865.346 1145.49 864.311 1145.49 863.244 1145.49C862.832 1146.41 862.42 1147.32 861.996 1148.26C860.007 1151.95 857.835 1154.56 854.972 1157.61C853.946 1158.7 852.921 1159.8 851.864 1160.92C850.217 1162.65 850.217 1162.65 848.538 1164.41C847.407 1165.61 846.276 1166.8 845.111 1168.02C810.049 1204.66 769.666 1233.53 720.496 1247.45C718.648 1247.99 716.8 1248.53 714.896 1249.08C673.086 1258.96 624.891 1253.04 585.611 1236.84C584.052 1236.2 582.492 1235.56 580.886 1234.91C579.912 1234.46 578.937 1234.01 577.933 1233.55C574.277 1232.94 574.277 1232.94 570.961 1236.2C569.632 1237.61 568.303 1239.02 566.934 1240.47C565.432 1242.03 563.93 1243.59 562.427 1245.15C561.648 1245.98 560.868 1246.8 560.065 1247.65C530.623 1278.7 494.769 1306.17 450.29 1308.95C418.833 1309.4 392.526 1299.09 369.608 1277.76C352.625 1261.13 340.466 1241.96 329.902 1220.79C329.403 1219.79 328.905 1218.8 328.391 1217.77C288.211 1135.84 281.756 1039.52 282.329 949.663C282.352 945.791 282.367 941.919 282.38 938.047C282.72 839.968 288.05 742.085 303.234 645.091C303.407 643.979 303.58 642.867 303.758 641.721C305.955 627.633 308.396 613.604 311.078 599.6C311.425 597.767 311.772 595.934 312.129 594.045C315.978 574.034 320.456 554.383 326.764 534.991C327.247 533.483 327.73 531.975 328.228 530.421C332.765 517.156 339.748 503.024 352.157 495.579C361.155 493.38 369.26 494.762 377.255 499.403C383.145 503.518 389.607 508.253 392.648 514.893C392.396 525.165 388.043 534.119 384.216 543.521C350.554 628.705 333.847 717.659 326.372 808.624C326.242 810.196 326.111 811.769 325.977 813.389C322.737 853.031 321.731 892.584 321.764 932.351C321.765 933.399 321.765 934.447 321.765 935.527C321.781 966.917 321.951 998.156 325.196 1029.41C325.298 1030.42 325.401 1031.44 325.507 1032.48C332.789 1104.06 342.462 1195 398.095 1247.41C414.839 1260.86 433.643 1269.19 455.501 1267.43C493.663 1263.1 520.287 1235.09 543.239 1206.67C540.589 1200.43 536.324 1195.58 532.062 1190.39C523.477 1179.69 516.615 1168.63 510.297 1156.47C509.462 1154.9 508.627 1153.33 507.766 1151.72C497.391 1130.91 492.023 1107.97 487.943 1085.2C487.707 1083.89 487.47 1082.59 487.226 1081.25C481.511 1046.89 481.386 1012.2 481.027 977.479C480.968 972.27 480.891 967.061 480.815 961.852C480.149 915.686 480.435 869.477 484.12 823.428C484.22 822.123 484.321 820.818 484.424 819.473C494.34 690.762 508.586 545.213 572.335 430.298C575.334 424.964 575.334 424.964 576.027 419.015C551.551 368.05 506.411 324.768 456.963 298.419C455.401 297.566 453.84 296.712 452.232 295.833C440.14 289.464 427.673 285.019 414.609 281.164C413.311 280.773 412.013 280.383 410.675 279.981C389.525 274.712 365.66 276.004 346.458 286.372C303.565 312.981 290.062 373.387 279.312 419.107C270.107 458.753 263.422 498.967 256.291 539.026C253.347 555.559 250.355 572.082 247.253 588.586C246.802 590.995 246.353 593.404 245.909 595.813C245.315 599.032 244.711 602.248 244.104 605.464C243.78 607.196 243.456 608.928 243.122 610.712C242.102 615.095 240.714 619.01 238.92 623.13C207.79 576.436 236.68 446.478 247.38 392.568C255.934 350.415 266.733 304.184 296.96 271.752C298.57 269.956 298.57 269.956 300.214 268.124C314.883 252.533 331.407 243.242 351.863 237.241C353.145 236.855 354.427 236.469 355.748 236.071C398.005 225.543 445.429 242.166 482.061 262.34C483.715 263.226 485.369 264.111 487.073 265.024C505.604 275.329 521.447 288.785 536.964 303.125C538.422 304.421 539.88 305.717 541.382 307.053C549.983 314.718 557.857 322.495 565.2 331.361C566.352 332.689 567.505 334.018 568.692 335.386C579.982 348.557 589.884 362.572 599.71 376.852C601 375.24 602.29 373.628 603.619 371.968C632.128 336.509 632.128 336.509 648.338 323.517C649.685 322.425 651.032 321.333 652.419 320.208C695.137 286.817 745.849 271.67 799.811 277.634C828.15 281.145 853.814 291.504 878.93 304.693C879.309 303.818 879.687 302.942 880.076 302.04C885.714 291.788 895.596 282.91 904.029 274.889C905.099 273.846 906.168 272.802 907.27 271.727C928.44 251.747 955.442 238.076 984.03 232.535C985.777 232.18 987.524 231.824 989.324 231.457C1022.71 228.578 1054.2 235.898 1080.32 257.603ZM675.005 369.008C673.869 369.983 672.733 370.958 671.562 371.962C660.203 382.56 651.182 395.716 642.064 408.225C641.067 409.586 641.067 409.586 640.05 410.974C633.385 419.479 633.385 419.479 631.144 429.616C633.341 437.305 636.74 444.317 640.103 451.559C656.165 487.104 669.366 524.351 679.711 561.953C684.225 558.002 686.542 553.642 689.252 548.325C690.185 546.505 691.119 544.686 692.081 542.811C692.573 541.841 693.065 540.872 693.572 539.873C695.127 536.809 696.693 533.752 698.262 530.695C700.973 525.41 703.676 520.121 706.377 514.831C719.766 488.611 733.445 462.641 748.128 437.118C750.046 433.768 751.937 430.405 753.812 427.03C761.385 413.478 769.729 400.601 778.537 387.832C779.18 386.893 779.823 385.955 780.486 384.987C790.952 369.772 802.442 355.716 814.659 341.875C819.3 337.297 819.3 337.297 820.89 331.361C766.955 318.863 716.7 333.026 675.005 369.008ZM824.791 383.93C783.969 425.511 755.024 478.97 726.992 529.581C722.746 537.236 718.385 544.812 713.928 552.345C713.321 553.38 712.713 554.416 712.088 555.483C708.652 561.327 705.126 567.103 701.525 572.848C699.908 575.49 698.29 578.133 696.672 580.777C695.897 581.977 695.121 583.178 694.321 584.416C688.906 593.368 688.517 598.925 690.692 609.012C691.264 612.237 691.831 615.462 692.395 618.688C692.72 620.453 693.046 622.218 693.38 624.036C720.493 772.076 690.211 922.982 643.632 1106.28C642.979 1108.41 642.979 1108.41 642.313 1110.58C632.836 1141.19 620.687 1171.24 602.431 1197.77C599.425 1201.57 599.425 1201.57 599.71 1205.1C605.002 1206.65 610.297 1208.18 615.593 1209.71C617.085 1210.14 618.577 1210.58 620.115 1211.03C661.298 1222.9 701.863 1211.83 738.753 1192.13C751.339 1185.1 762.66 1176.52 773.831 1167.45C774.795 1166.67 775.76 1165.89 776.754 1165.08C793.031 1151.73 809.373 1137.32 822.514 1120.8C825.177 1117.74 827.834 1115.28 830.884 1112.64C836.831 1107.07 842.068 1101.69 844.42 1093.73C843.757 1081.82 838.201 1070.58 833.81 1059.65C786.242 933.59 808.469 780.174 824.937 633.533C825.626 627.575 825.871 621.742 825.982 615.747C826.032 613.433 826.081 611.12 826.132 608.806C826.168 607.01 826.168 607.01 826.205 605.178C826.738 579.712 827.907 554.378 830.302 529.011C830.451 527.427 830.6 525.843 830.754 524.211C836.323 467.274 845.115 409.276 863.244 354.89C849.428 354.89 834.099 374.625 824.791 383.93ZM1133.05 398.813C1133.78 407.808 1134.52 416.799 1135.44 425.777C1138.12 452.701 1138.32 479.548 1138.26 506.574C1138.25 510.333 1138.24 514.093 1138.24 517.852C1138.19 555.209 1137.37 592.262 1133.05 629.405C1132.81 631.526 1132.58 633.647 1132.34 635.768C1118.69 756.162 1075.22 859 1005.85 957.68C1001.26 964.233 996.765 970.84 992.266 977.45C973.443 1005.03 954.001 1032.15 933.75 1058.7C932.054 1060.92 930.367 1063.15 928.69 1065.39C924.675 1070.71 920.594 1075.73 915.953 1080.51C906.773 1090.16 906.773 1090.16 903.919 1102.89C904.924 1108.71 906.794 1114.15 908.87 1119.67C910.428 1123.87 911.79 1128.1 913.141 1132.37C919.053 1150.68 926.154 1167.85 935.402 1184.71C936.43 1186.64 937.457 1188.58 938.484 1190.52C945.112 1202.79 952.702 1213.59 962.069 1223.92C962.764 1224.7 963.46 1225.47 964.176 1226.27C982.269 1246.11 1006.39 1264.36 1034.03 1266.65C1066 1267.41 1090.61 1250.75 1113.03 1229.72C1134 1209.58 1151.45 1186.51 1165.75 1161.23C1166.99 1159.04 1168.25 1156.86 1169.51 1154.69C1234.04 1043.87 1274.54 902.329 1274.62 774.309C1274.62 772.911 1274.63 771.513 1274.63 770.072C1274.6 744.36 1273.17 719.204 1269.53 693.72C1269.28 692.006 1269.04 690.292 1268.79 688.527C1259.04 623.462 1236.83 560.648 1206.78 502.344C1206.19 501.19 1205.6 500.036 1204.99 498.847C1190.92 471.788 1172.56 446.043 1153.44 422.343C1151.75 420.195 1150.06 418.046 1148.37 415.896C1146.63 413.698 1144.89 411.5 1143.15 409.303C1142.33 408.259 1141.5 407.214 1140.65 406.138C1138.68 403.666 1136.65 401.235 1134.62 398.813C1134.1 398.813 1133.59 398.813 1133.05 398.813Z" stroke="black" stroke-width="30" mask="url(#path-2-outside-1_183_22)"/>
</svg>
