<svg width="695" height="1286" viewBox="0 0 695 1286" fill="none" xmlns="http://www.w3.org/2000/svg">
    <path d="M229.938 1070.18C233.877 1074.36 236.711 1078.95 239.625 1083.87C250.324 1101.37 265.161 1113.52 285.313 1118.49C287.849 1119.1 290.383 1119.65 292.938 1120.18C293.838 1120.38 294.737 1120.57 295.664 1120.77C322.711 1124.16 348.166 1118.24 369.812 1101.42C380.173 1093.12 389.673 1083.67 398.938 1074.18C407.496 1081.33 408.179 1100.24 409.344 1110.9C410.158 1121.31 410.123 1131.75 409.938 1142.18C409.925 1142.99 409.913 1143.79 409.9 1144.62C409.569 1161.28 407.325 1177.72 404.938 1194.18C404.724 1195.69 404.724 1195.69 404.505 1197.22C400.939 1221.62 394.568 1245.78 387.701 1269.44C387.319 1270.76 386.943 1272.08 386.572 1273.4C386.059 1275.21 385.521 1277.02 384.981 1278.82C384.533 1280.35 384.533 1280.35 384.075 1281.9C382.938 1284.18 382.938 1284.18 380.931 1285.05C376.079 1285.36 371.65 1281.67 367.813 1279.06C359.75 1271.81 356.486 1261.47 355.79 1250.95C354.948 1230.07 356.658 1208.98 357.562 1188.13C357.956 1178.96 358.28 1169.79 358.563 1160.62C358.603 1159.33 358.643 1158.04 358.684 1156.71C358.77 1153.87 358.855 1151.03 358.938 1148.18C358.103 1148.52 357.268 1148.85 356.408 1149.2C349.997 1151.72 343.74 1153.99 337 1155.43C336.298 1155.59 335.596 1155.75 334.873 1155.92C317.225 1159.88 298.257 1159.55 280.574 1155.84C273.403 1154.53 273.403 1154.53 266.938 1157.18C265.937 1159.64 265.937 1159.64 265.246 1162.61C264.946 1163.78 264.646 1164.94 264.337 1166.15C264.016 1167.45 263.696 1168.75 263.375 1170.06C263.032 1171.41 262.689 1172.77 262.345 1174.13C260.23 1182.56 258.275 1191.02 256.367 1199.5C256.15 1200.47 255.932 1201.43 255.708 1202.43C254.634 1207.21 253.571 1212 252.527 1216.79C246.19 1245.58 246.19 1245.58 240.938 1251.18C238.301 1252.12 235.898 1252.83 233.188 1253.43C232.497 1253.6 231.806 1253.78 231.094 1253.96C226.608 1255.02 222.544 1255.35 217.938 1255.18C216.763 1251.66 216.592 1248.31 216.381 1244.64C216.334 1243.87 216.287 1243.1 216.238 1242.31C216.082 1239.75 215.931 1237.2 215.782 1234.64C215.673 1232.84 215.565 1231.03 215.457 1229.23C215.229 1225.43 215.004 1221.63 214.781 1217.82C214.501 1213.05 214.214 1208.28 213.924 1203.51C212.078 1173.02 210.748 1142.6 210.807 1112.05C210.813 1108.66 210.807 1105.28 210.801 1101.89C210.802 1099.7 210.803 1097.51 210.805 1095.31C210.803 1094.32 210.801 1093.33 210.799 1092.31C210.814 1087.92 210.903 1083.55 211.239 1079.17C211.292 1078.47 211.345 1077.77 211.4 1077.05C212.279 1073.99 214.443 1072.69 217.051 1071.06C221.563 1068.96 225.087 1068.91 229.938 1070.18Z" fill="black"/>
    <path d="M545.321 328.162C546.102 328.828 546.883 329.495 547.688 330.182C567.172 346.001 595.932 349.663 620.017 352.092C621.097 352.206 622.177 352.319 623.29 352.435C624.257 352.532 625.225 352.628 626.222 352.727C629.022 353.196 631.35 354.032 633.938 355.182C633.938 355.842 633.938 356.502 633.938 357.182C620.353 369.114 604.136 371.574 586.688 371.307C585.55 371.298 584.412 371.289 583.239 371.279C580.472 371.256 577.705 371.223 574.938 371.182C575.476 371.714 576.013 372.247 576.567 372.795C577.634 373.857 577.634 373.857 578.723 374.939C579.426 375.637 580.128 376.334 580.852 377.053C583.38 379.632 585.745 382.323 588.098 385.06C590.133 387.406 592.221 389.699 594.313 391.994C598.564 396.717 602.644 401.549 606.607 406.516C607.548 407.693 608.493 408.867 609.441 410.038C667.079 481.397 698.165 573.779 693.903 693.935C684.845 776.004 655.154 870.294 595.938 954.182C595.19 955.038 594.443 955.893 593.672 956.775C591.459 959.275 589.211 961.736 586.938 964.182C586.315 964.858 585.693 965.535 585.051 966.232C570.057 981.918 547.556 996.85 525.2 997.42C496.188 998 474.372 987.272 452.938 968.182C451.954 967.308 451.954 967.308 450.95 966.416C433.736 950.147 421.613 927.498 412.438 905.932C412.087 905.109 411.736 904.286 411.375 903.438C411.056 902.668 410.736 901.897 410.407 901.103C409.98 900.076 409.98 900.076 409.545 899.028C408.938 897.182 408.938 897.182 408.938 894.182C408.278 894.182 407.618 894.182 406.938 894.182C406.676 894.765 406.413 895.348 406.143 895.949C404.875 898.299 403.49 899.961 401.665 901.904C401.011 902.602 400.357 903.3 399.683 904.019C398.634 905.121 398.634 905.121 397.563 906.244C396.842 907.003 396.121 907.763 395.378 908.545C373.027 931.898 347.283 950.305 315.938 959.182C314.76 959.523 313.582 959.865 312.368 960.217C285.714 966.514 254.99 962.741 229.95 952.416C228.956 952.009 227.962 951.601 226.938 951.182C226.317 950.897 225.696 950.613 225.056 950.32C222.725 949.931 222.725 949.931 220.611 952.005C219.763 952.904 218.916 953.802 218.044 954.728C217.086 955.724 216.128 956.719 215.171 957.715C214.674 958.241 214.177 958.767 213.665 959.309C194.896 979.101 172.039 996.615 143.684 998.385C123.631 998.669 106.86 992.101 92.2505 978.498C81.424 967.902 73.673 955.676 66.938 942.182C66.6203 941.547 66.3025 940.913 65.9751 940.26C40.3607 888.026 36.2458 826.628 36.6112 769.342C36.6259 766.874 36.6354 764.406 36.6435 761.938C36.8603 699.413 40.2579 637.014 49.938 575.182C50.0482 574.472 50.1585 573.763 50.272 573.033C51.6725 564.052 53.2284 555.109 54.938 546.182C55.1593 545.013 55.3805 543.844 55.6084 542.64C58.0616 529.883 60.9169 517.356 64.938 504.994C65.2459 504.033 65.5537 503.071 65.8709 502.081C68.7632 493.624 73.215 484.615 81.1255 479.869C86.8616 478.467 92.0286 479.348 97.1255 482.307C100.88 484.93 105 487.948 106.938 492.182C106.777 498.73 104.003 504.438 101.563 510.432C80.1035 564.736 69.4529 621.443 64.688 679.432C64.6049 680.434 64.5219 681.436 64.4363 682.469C62.3708 707.741 61.7293 732.955 61.7505 758.307C61.7508 758.975 61.7511 759.643 61.7514 760.331C61.7614 780.342 61.8694 800.256 63.938 820.182C64.0036 820.828 64.0691 821.474 64.1366 822.139C68.7788 867.769 74.9452 925.742 110.411 959.15C121.085 967.729 133.072 973.035 147.006 971.915C171.334 969.154 188.307 951.298 202.938 933.182C201.249 929.201 198.53 926.113 195.813 922.807C190.34 915.981 185.966 908.935 181.938 901.182C181.406 900.181 180.873 899.181 180.325 898.15C173.711 884.889 170.289 870.261 167.688 855.744C167.537 854.913 167.386 854.083 167.231 853.227C163.587 831.324 163.508 809.211 163.279 787.075C163.242 783.754 163.192 780.434 163.144 777.113C162.719 747.683 162.902 718.225 165.251 688.869C165.315 688.037 165.379 687.205 165.445 686.348C171.766 604.296 180.848 511.51 221.487 438.253C223.399 434.853 223.399 434.853 223.84 431.06C208.237 398.571 179.461 370.979 147.938 354.182C146.943 353.638 145.948 353.094 144.922 352.533C137.214 348.473 129.267 345.639 120.938 343.182C120.11 342.933 119.283 342.684 118.43 342.428C104.947 339.069 89.7336 339.893 77.4927 346.502C50.1486 363.465 41.5405 401.973 34.688 431.119C28.8197 456.393 24.5583 482.029 20.0123 507.566C18.1356 518.106 16.2278 528.639 14.2506 539.16C13.9627 540.696 13.677 542.231 13.3935 543.767C13.0149 545.819 12.6298 547.87 12.2427 549.92C12.0363 551.024 11.8299 552.128 11.6172 553.265C10.9665 556.059 10.0821 558.555 8.93803 561.182C-10.9068 531.414 7.5101 448.568 14.3312 414.201C19.7845 387.328 26.6688 357.857 45.938 337.182C46.9648 336.037 46.9648 336.037 48.0123 334.869C57.3638 324.93 67.898 319.007 80.938 315.182C81.7553 314.935 82.5726 314.689 83.4146 314.435C110.353 307.724 140.585 318.321 163.938 331.182C164.992 331.746 166.047 332.311 167.133 332.892C178.947 339.462 189.046 348.04 198.938 357.182C199.867 358.008 200.797 358.834 201.754 359.685C207.238 364.572 212.257 369.53 216.938 375.182C217.673 376.028 218.408 376.875 219.165 377.748C226.361 386.144 232.674 395.079 238.938 404.182C239.76 403.154 240.583 402.127 241.43 401.068C259.604 378.463 259.604 378.463 269.938 370.182C270.797 369.485 271.655 368.789 272.54 368.072C299.772 346.786 332.1 337.129 366.501 340.932C384.566 343.169 400.927 349.773 416.938 358.182C417.179 357.623 417.42 357.065 417.668 356.49C421.263 349.954 427.562 344.295 432.938 339.182C433.62 338.516 434.302 337.851 435.004 337.166C448.5 324.429 465.713 315.714 483.938 312.182C485.052 311.955 486.166 311.728 487.313 311.494C508.599 309.659 528.673 314.325 545.321 328.162ZM286.938 399.182C286.214 399.803 285.489 400.424 284.743 401.064C277.502 407.821 271.751 416.207 265.938 424.182C265.303 425.049 265.303 425.049 264.654 425.934C260.406 431.356 260.406 431.356 258.977 437.818C260.378 442.72 262.544 447.19 264.688 451.807C274.927 474.466 283.343 498.211 289.938 522.182C292.815 519.663 294.293 516.883 296.02 513.494C296.615 512.334 297.21 511.174 297.823 509.979C298.137 509.361 298.451 508.743 298.774 508.106C299.765 506.153 300.763 504.204 301.764 502.255C303.492 498.886 305.215 495.514 306.937 492.142C315.473 475.427 324.193 458.871 333.553 442.601C334.776 440.465 335.981 438.321 337.176 436.17C342.004 427.53 347.323 419.322 352.938 411.182C353.348 410.583 353.758 409.985 354.181 409.368C360.853 399.669 368.177 390.708 375.965 381.885C378.924 378.966 378.924 378.966 379.938 375.182C345.555 367.214 313.518 376.244 286.938 399.182ZM382.425 408.694C356.401 435.201 337.949 469.281 320.079 501.545C317.372 506.425 314.592 511.254 311.751 516.057C311.363 516.717 310.976 517.377 310.578 518.057C308.387 521.783 306.14 525.465 303.844 529.127C302.813 530.812 301.782 532.497 300.751 534.182C300.256 534.947 299.761 535.713 299.252 536.501C295.799 542.208 295.552 545.751 296.938 552.182C297.302 554.237 297.664 556.293 298.024 558.35C298.231 559.475 298.438 560.6 298.652 561.759C315.936 656.133 296.631 752.334 266.938 869.182C266.522 870.54 266.522 870.54 266.097 871.926C260.056 891.441 252.311 910.594 240.672 927.51C238.757 929.93 238.757 929.93 238.938 932.182C242.311 933.166 245.687 934.143 249.063 935.119C250.014 935.397 250.966 935.675 251.946 935.961C278.199 943.527 304.059 936.473 327.577 923.914C335.6 919.434 342.817 913.964 349.938 908.182C350.553 907.682 351.168 907.183 351.802 906.668C362.178 898.161 372.596 888.969 380.973 878.439C382.671 876.488 384.364 874.924 386.309 873.236C390.1 869.685 393.439 866.26 394.938 861.182C394.515 853.591 390.974 846.427 388.174 839.458C357.85 759.096 372.019 661.295 382.518 567.813C382.957 564.015 383.113 560.297 383.184 556.475C383.216 555 383.247 553.525 383.279 552.05C383.302 550.905 383.302 550.905 383.326 549.737C383.666 533.503 384.411 517.353 385.938 501.182C386.033 500.172 386.128 499.162 386.226 498.121C389.776 461.825 395.381 424.852 406.938 390.182C398.131 390.182 388.359 402.762 382.425 408.694ZM578.938 418.182C579.401 423.916 579.872 429.648 580.462 435.371C582.166 452.535 582.296 469.649 582.256 486.878C582.25 489.275 582.248 491.671 582.246 494.068C582.214 517.883 581.693 541.504 578.938 565.182C578.786 566.534 578.635 567.886 578.484 569.238C569.78 645.988 542.072 711.546 497.846 774.454C494.925 778.631 492.056 782.843 489.188 787.057C477.189 804.638 464.795 821.924 451.885 838.85C450.804 840.268 449.728 841.691 448.659 843.119C446.1 846.508 443.498 849.706 440.54 852.756C434.688 858.908 434.688 858.908 432.868 867.021C433.509 870.733 434.701 874.201 436.024 877.72C437.017 880.395 437.886 883.094 438.747 885.814C442.516 897.487 447.042 908.437 452.938 919.182C453.593 920.416 454.248 921.65 454.903 922.885C459.128 930.707 463.966 937.595 469.938 944.182C470.381 944.674 470.825 945.166 471.281 945.674C482.815 958.328 498.195 969.96 515.813 971.42C536.19 971.904 551.879 961.284 566.176 947.874C579.542 935.038 590.666 920.331 599.784 904.216C600.575 902.821 601.375 901.431 602.182 900.046C643.318 829.399 669.132 739.168 669.188 657.557C669.189 656.665 669.189 655.774 669.19 654.855C669.171 638.464 668.264 622.427 665.938 606.182C665.782 605.089 665.627 603.997 665.466 602.871C659.256 561.393 645.097 521.35 625.938 484.182C625.561 483.446 625.184 482.71 624.796 481.953C615.828 464.703 604.122 448.29 591.938 433.182C590.857 431.813 589.778 430.443 588.7 429.072C587.592 427.671 586.484 426.27 585.376 424.869C584.85 424.203 584.324 423.537 583.783 422.851C582.525 421.276 581.234 419.726 579.938 418.182C579.608 418.182 579.278 418.182 578.938 418.182Z" fill="black"/>
    <path d="M561.813 69.8692C562.864 69.8402 563.914 69.8112 564.997 69.7813C571.523 69.7282 576.525 70.3468 581.938 74.1817C586.318 78.6766 588.052 82.6328 587.985 88.8536C587.978 89.6641 587.971 90.4746 587.964 91.3096C587.951 92.2363 587.951 92.2363 587.938 93.1817C587.164 93.2767 586.39 93.3717 585.593 93.4696C552.291 97.6262 520.856 104.292 494.938 127.182C494.064 127.947 493.19 128.713 492.29 129.502C488.043 133.275 483.904 137.114 479.938 141.182C479.331 141.744 478.724 142.306 478.098 142.885C455.421 164.373 439.657 194.338 424.893 221.506C422.297 226.062 422.297 226.062 418.938 227.182C411.109 228.181 403.628 224.917 397.387 220.291C395.502 218.643 393.69 216.97 391.938 215.182C393.175 211.215 394.617 207.633 396.59 203.979C397.376 202.522 397.376 202.522 398.177 201.035C398.737 200.011 399.298 198.987 399.875 197.932C400.457 196.866 401.038 195.801 401.637 194.703C412.552 174.844 424.739 155.861 438.938 138.182C439.355 137.66 439.772 137.139 440.201 136.602C466.914 103.448 501.983 79.7217 543.938 71.1817C544.845 70.9884 545.753 70.795 546.688 70.5958C551.725 69.9541 556.74 69.9156 561.813 69.8692Z" fill="black"/>
    <path d="M95.938 20.9942C106.751 29.1718 116.93 38.0414 126.938 47.1817C127.894 48.0454 128.851 48.9091 129.836 49.7989C138.693 57.8181 147.386 66.0067 155.145 75.1114C157.269 77.5645 159.48 79.9288 161.688 82.3067C166.977 88.1091 171.808 94.2122 176.59 100.435C177.883 102.111 179.191 103.775 180.504 105.436C192.985 121.295 203.464 138.415 212.875 156.244C213.348 157.137 213.821 158.03 214.309 158.95C220.099 170.062 220.099 170.062 219.739 174.811C217.458 181.565 211.994 185.453 205.875 188.619C201.883 190.545 198.336 191.613 193.938 192.182C193.332 191.019 192.726 189.856 192.102 188.658C170.855 147.999 145.974 109.936 115.938 75.1817C115.27 74.4006 114.603 73.6194 113.915 72.8145C108.649 66.7998 103.015 61.1563 97.3755 55.4942C96.5718 54.6858 95.768 53.8774 94.9399 53.0445C90.689 48.8049 86.3632 44.7253 81.8118 40.8104C78.8381 38.2257 75.9913 35.5096 73.1255 32.8067C67.2635 27.3275 61.2104 22.1883 54.938 17.1817C52.0386 14.8319 49.145 12.475 46.2505 10.1192C44.8509 8.98229 43.4512 7.84556 42.0513 6.70907C41.451 6.22172 40.8507 5.73438 40.2322 5.23226C39.5916 4.71225 39.5916 4.71225 38.938 4.18172C39.938 2.18172 39.938 2.18172 42.688 0.994224C62.1169 -3.86301 81.2775 10.0855 95.938 20.9942Z" fill="black"/>
</svg>
